# xmcd
#
# Track frame offsets: 
#        150
#        40663
#        79470
#        106870
#        137293
#        157072
#        180937
#        206794
#        240529
#        260844
#        296436
#
# Disc length: 4219 seconds
#
# Revision: 0
# Processed by: cddbd v1.5.2PL0 Copyright (c) Steve Scherf et al.
# Submitted via: ExactAudioCopyFreeDBPlugin 1.0
#
DISCID=9410790b
DTITLE=Blues-Rock Collection (Various Artists) - Gekko Musik 3 (Kusche
DTITLE=lrock)
DYEAR=2008
DGENRE=Blues-Rock
TTITLE0=Guns´N´Roses - November Rain
TTITLE1=Led Zeppelin - Cashmir
TTITLE2=10 cc - I´m Not In Love
TTITLE3=Pink Floyd - Comfortably Numb
TTITLE4=Snowy White - Bird Of Paradise
TTITLE5=Genesis - Carpet Crawl
TTITLE6=Leonard Cohen - So Long Marianne
TTITLE7=Deep Purple - Mistreated
TTITLE8=Earth Band - It´s All Over Now Baby Blue
TTITLE9=Traffic - Holy Ground
TTITLE10=Aerosmith - Dream On
EXTD=
EXTT0=
EXTT1=
EXTT2=
EXTT3=
EXTT4=
EXTT5=
EXTT6=
EXTT7=
EXTT8=
EXTT9=
EXTT10=
PLAYORDER=
